<?xml version="1.0" encoding="UTF-8"?>
<svg width="144px" height="166px" viewBox="0 0 144 166" version="1.1" xmlns="http://www.w3.org/2000/svg" xmlns:xlink="http://www.w3.org/1999/xlink">
    <title>left</title>
    <defs>
        <linearGradient x1="30.993838%" y1="0%" x2="69.006162%" y2="100%" id="linearGradient-1">
            <stop stop-color="#4EB9FB" offset="0%"></stop>
            <stop stop-color="#2683F5" offset="100%"></stop>
        </linearGradient>
        <linearGradient x1="30.993838%" y1="0%" x2="69.006162%" y2="100%" id="linearGradient-2">
            <stop stop-color="#4EB9FB" offset="0%"></stop>
            <stop stop-color="#2683F5" offset="100%"></stop>
        </linearGradient>
    </defs>
    <g id="Page-1" stroke="none" stroke-width="1" fill="none" fill-rule="evenodd">
        <g id="terratest-support" transform="translate(-277.000000, -1946.000000)">
            <g id="left" transform="translate(277.700000, 1946.500000)">
                <g id="Group-Copy-8" transform="translate(65.600000, 96.200000)">
                    <polygon id="Rectangle" fill="url(#linearGradient-1)" points="30.6 37.9741935 60.12 19.44 60.12 48.7858065 30.6 67.32"></polygon>
                    <polygon id="Rectangle-Copy-15" fill="#0464D0" transform="translate(14.760000, 43.380000) scale(-1, 1) translate(-14.760000, -43.380000) " points="-8.8817842e-14 37.9741935 29.52 19.44 29.52 48.7858065 -8.8817842e-14 67.32"></polygon>
                    <polygon id="Rectangle-Copy-3" fill="#0692EA" transform="translate(30.060000, 18.540000) scale(-1, 1) translate(-30.060000, -18.540000) " points="0.72 18.54 30.06 7.10542736e-15 59.4 18.54 30.06 37.08"></polygon>
                </g>
                <g id="Group-Copy-9">
                    <polygon id="Rectangle" fill="url(#linearGradient-2)" points="15.9 19.5870968 30.66 10.32 30.66 24.9929032 15.9 34.26"></polygon>
                    <polygon id="Rectangle-Copy-15" fill="#0240B5" transform="translate(7.380000, 22.290000) scale(-1, 1) translate(-7.380000, -22.290000) " points="-4.4408921e-15 19.5870968 14.76 10.32 14.76 24.9929032 -4.4408921e-15 34.26"></polygon>
                    <polygon id="Rectangle-Copy-3" fill="#023FB4" transform="translate(15.390000, 9.270000) scale(-1, 1) translate(-15.390000, -9.270000) " points="0.72 9.27 15.39 -1.77635684e-14 30.06 9.27 15.39 18.54"></polygon>
                </g>
                <g id="Group-Copy-10" transform="translate(111.800000, 77.000000)">
                    <polygon id="Rectangle" fill="url(#linearGradient-2)" points="15.9 19.5870968 30.66 10.32 30.66 24.9929032 15.9 34.26"></polygon>
                    <polygon id="Rectangle-Copy-15" fill="#024ABC" transform="translate(7.380000, 22.290000) scale(-1, 1) translate(-7.380000, -22.290000) " points="-4.4408921e-15 19.5870968 14.76 10.32 14.76 24.9929032 -4.4408921e-15 34.26"></polygon>
                    <polygon id="Rectangle-Copy-3" fill="#067ACB" transform="translate(15.390000, 9.270000) scale(-1, 1) translate(-15.390000, -9.270000) " points="0.72 9.27 15.39 -1.77635684e-14 30.06 9.27 15.39 18.54"></polygon>
                </g>
            </g>
        </g>
    </g>
</svg>