<?xml version="1.0" encoding="UTF-8"?>
<svg width="232px" height="333px" viewBox="0 0 232 333" version="1.1" xmlns="http://www.w3.org/2000/svg" xmlns:xlink="http://www.w3.org/1999/xlink">
    <title>right</title>
    <defs>
        <linearGradient x1="31.5688776%" y1="0%" x2="68.4311224%" y2="100%" id="linearGradient-1">
            <stop stop-color="#4EB9FB" offset="0%"></stop>
            <stop stop-color="#2683F5" offset="100%"></stop>
        </linearGradient>
        <linearGradient x1="79.8583349%" y1="52.4235768%" x2="23.5716011%" y2="62.2595436%" id="linearGradient-2">
            <stop stop-color="#1888CF" offset="0%"></stop>
            <stop stop-color="#0352C2" offset="100%"></stop>
        </linearGradient>
        <linearGradient x1="29.3367347%" y1="0%" x2="70.6632653%" y2="100%" id="linearGradient-3">
            <stop stop-color="#4EB9FB" offset="0%"></stop>
            <stop stop-color="#2683F5" offset="100%"></stop>
        </linearGradient>
        <linearGradient x1="79.8583349%" y1="52.6127965%" x2="23.5716011%" y2="63.2167021%" id="linearGradient-4">
            <stop stop-color="#1888CF" offset="0%"></stop>
            <stop stop-color="#0352C2" offset="100%"></stop>
        </linearGradient>
        <linearGradient x1="30.993838%" y1="0%" x2="69.006162%" y2="100%" id="linearGradient-5">
            <stop stop-color="#4EB9FB" offset="0%"></stop>
            <stop stop-color="#2683F5" offset="100%"></stop>
        </linearGradient>
        <linearGradient x1="79.8583349%" y1="52.4918236%" x2="23.5716011%" y2="62.6047667%" id="linearGradient-6">
            <stop stop-color="#1888CF" offset="0%"></stop>
            <stop stop-color="#0352C2" offset="100%"></stop>
        </linearGradient>
        <linearGradient x1="30.993838%" y1="0%" x2="69.006162%" y2="100%" id="linearGradient-7">
            <stop stop-color="#4EB9FB" offset="0%"></stop>
            <stop stop-color="#2683F5" offset="100%"></stop>
        </linearGradient>
    </defs>
    <g id="Page-1" stroke="none" stroke-width="1" fill="none" fill-rule="evenodd">
        <g id="terratest-support" transform="translate(-1008.000000, -1929.000000)">
            <g id="right" transform="translate(1008.000000, 1929.100000)">
                <polygon id="Rectangle" fill="url(#linearGradient-1)" points="113 297.577419 147 275.9 147 310.222581 113 331.9"></polygon>
                <polygon id="Rectangle-Copy-15" fill="#0237AE" transform="translate(95.000000, 303.900000) scale(-1, 1) translate(-95.000000, -303.900000) " points="78 297.577419 112 275.9 112 310.222581 78 331.9"></polygon>
                <polygon id="Rectangle-Copy-3" fill="url(#linearGradient-2)" transform="translate(112.500000, 275.400000) scale(-1, 1) translate(-112.500000, -275.400000) " points="78 275.4 112.5 253.9 147 275.4 112.5 296.9"></polygon>
                <polygon id="Rectangle" fill="url(#linearGradient-3)" points="148 255.73871 166 244.9 166 262.06129 148 272.9"></polygon>
                <polygon id="Rectangle-Copy-15" fill="#0237AE" transform="translate(139.000000, 258.900000) scale(-1, 1) translate(-139.000000, -258.900000) " points="130 255.73871 148 244.9 148 262.06129 130 272.9"></polygon>
                <polygon id="Rectangle-Copy-3" fill="url(#linearGradient-4)" transform="translate(147.000000, 243.900000) scale(-1, 1) translate(-147.000000, -243.900000) " points="130 243.9 147 232.9 164 243.9 147 254.9"></polygon>
                <polygon id="Rectangle" fill="url(#linearGradient-3)" points="18 253.73871 36 242.9 36 260.06129 18 270.9"></polygon>
                <polygon id="Rectangle-Copy-15" fill="#0237AE" transform="translate(9.000000, 256.900000) scale(-1, 1) translate(-9.000000, -256.900000) " points="0 253.73871 18 242.9 18 260.06129 0 270.9"></polygon>
                <polygon id="Rectangle-Copy-3" fill="#0237AE" transform="translate(18.000000, 241.900000) scale(-1, 1) translate(-18.000000, -241.900000) " points="1 241.9 18 230.9 35 241.9 18 252.9"></polygon>
                <g id="Group-Copy-12" transform="translate(171.000000, 79.900000)">
                    <polygon id="Rectangle" fill="url(#linearGradient-5)" points="30.6 37.9741935 60.12 19.44 60.12 48.7858065 30.6 67.32"></polygon>
                    <polygon id="Rectangle-Copy-15" fill="#024ABC" transform="translate(14.760000, 43.380000) scale(-1, 1) translate(-14.760000, -43.380000) " points="-8.8817842e-14 37.9741935 29.52 19.44 29.52 48.7858065 -8.8817842e-14 67.32"></polygon>
                    <polygon id="Rectangle-Copy-3" fill="url(#linearGradient-6)" transform="translate(30.060000, 18.540000) scale(-1, 1) translate(-30.060000, -18.540000) " points="0.72 18.54 30.06 7.10542736e-15 59.4 18.54 30.06 37.08"></polygon>
                </g>
                <g id="Group-Copy-11" transform="translate(67.300000, 0.000000)">
                    <polygon id="Rectangle" fill="url(#linearGradient-7)" points="15.9 19.5870968 30.66 10.32 30.66 24.9929032 15.9 34.26"></polygon>
                    <polygon id="Rectangle-Copy-15" fill="#024ABC" transform="translate(7.380000, 22.290000) scale(-1, 1) translate(-7.380000, -22.290000) " points="2.22932783e-13 19.5870968 14.76 10.32 14.76 24.9929032 2.22932783e-13 34.26"></polygon>
                    <polygon id="Rectangle-Copy-3" fill="#0462CF" transform="translate(15.390000, 9.270000) scale(-1, 1) translate(-15.390000, -9.270000) " points="0.72 9.27 15.39 -1.77635684e-14 30.06 9.27 15.39 18.54"></polygon>
                </g>
            </g>
        </g>
    </g>
</svg>